<svg xmlns="http://www.w3.org/2000/svg" width="64" height="64" viewBox="0 0 64 64">
  <defs>
    <mask id="tiktok-cutout">
      <rect width="64" height="64" fill="white"/>
      <path fill="black" d="M 33,14 V 29.203124 39 c 0,2.761424 -2.238576,5 -5,5 -2.761424,0 -5,-2.238576 -5,-5 0,-2.761424 2.238576,-5 5,-5 0.335898,1.78e-4 0.670924,0.0342 1,0.10156 V 28.054688 C 28.66767,28.021286 28.33399,28.003038 28,28 c -6.075132,0 -11,4.924868 -11,11 0,6.075132 4.924868,11 11,11 6.075132,0 11,-4.924868 11,-11 V 26.222656 C 41.36824,27.838956 43.91931,29 47,29 V 23.933594 22.625 c -1.612274,9.7e-4 -2.886708,-0.454074 -4.253906,-1.308594 v 0.004 C 40.923764,20.18348 39.575784,18.376927 39,16.253906 L 38.6,14 Z"/>
    </mask>
  </defs>
  <circle fill="currentColor" cx="32" cy="32" r="28" mask="url(#tiktok-cutout)"/>
</svg>